<svg width="510" height="201" viewBox="0 0 510 201" fill="none" xmlns="http://www.w3.org/2000/svg">
<circle cx="82.9717" cy="100.972" r="72.9564" transform="rotate(0.0120695 82.9717 100.972)" fill="white"/>
<rect x="39.7313" y="57.713" width="87.3729" height="87.3729" transform="rotate(0.0120695 39.7313 57.713)" stroke="black" stroke-width="4.99895" stroke-linecap="round" stroke-linejoin="round"/>
<line x1="80.9004" y1="142.595" x2="80.9076" y2="108.276" stroke="black" stroke-width="4.99895" stroke-linecap="round" stroke-linejoin="round"/>
<line x1="42.2239" y1="90.1633" x2="54.6995" y2="90.1659" stroke="black" stroke-width="4.99895" stroke-linecap="round" stroke-linejoin="round"/>
<line x1="50.9607" y1="92.5428" x2="50.9531" y2="128.609" stroke="black" stroke-width="4.99895" stroke-linecap="round" stroke-linejoin="round"/>
<line x1="103.38" y1="60.2371" x2="103.047" y2="130.414" stroke="black" stroke-width="4.99895" stroke-linecap="round" stroke-linejoin="round"/>
<line x1="124.597" y1="95.1796" x2="94.6466" y2="95.1733" stroke="black" stroke-width="4.99895" stroke-linecap="round" stroke-linejoin="round"/>
<line x1="50.9568" y1="116.378" x2="90.0392" y2="116.404" stroke="black" stroke-width="4.99895" stroke-linecap="round" stroke-linejoin="round"/>
<line x1="72.1686" y1="116.381" x2="72.1767" y2="77.694" stroke="black" stroke-width="4.99895" stroke-linecap="round" stroke-linejoin="round"/>
<line x1="72.1767" y1="77.6939" x2="42.2265" y2="77.6876" stroke="black" stroke-width="4.99895" stroke-linecap="round" stroke-linejoin="round"/>
<line x1="59.7048" y1="60.2167" x2="59.7016" y2="75.3135" stroke="black" stroke-width="4.99895" stroke-linecap="round" stroke-linejoin="round"/>
<line x1="81.0395" y1="130.402" x2="110.033" y2="130.402" stroke="black" stroke-width="4.99895" stroke-linecap="round" stroke-linejoin="round"/>
<path d="M232.591 141.296C225.657 141.296 219.357 139.762 213.691 136.696C208.091 133.562 203.691 129.296 200.491 123.896C197.357 118.496 195.791 112.429 195.791 105.696C195.791 98.9623 197.357 92.8957 200.491 87.4957C203.691 82.0957 208.091 77.8623 213.691 74.7957C219.357 71.6623 225.657 70.0957 232.591 70.0957C239.524 70.0957 245.757 71.629 251.291 74.6957C256.891 77.7623 261.291 82.029 264.491 87.4957C267.691 92.8957 269.291 98.9623 269.291 105.696C269.291 112.429 267.691 118.529 264.491 123.996C261.291 129.396 256.891 133.629 251.291 136.696C245.757 139.762 239.524 141.296 232.591 141.296ZM232.591 134.696C238.124 134.696 243.124 133.462 247.591 130.996C252.057 128.462 255.557 124.996 258.091 120.596C260.624 116.129 261.891 111.162 261.891 105.696C261.891 100.229 260.624 95.2957 258.091 90.8957C255.557 86.429 252.057 82.9623 247.591 80.4957C243.124 77.9623 238.124 76.6957 232.591 76.6957C227.057 76.6957 222.024 77.9623 217.491 80.4957C213.024 82.9623 209.491 86.429 206.891 90.8957C204.357 95.2957 203.091 100.229 203.091 105.696C203.091 111.162 204.357 116.129 206.891 120.596C209.491 124.996 213.024 128.462 217.491 130.996C222.024 133.462 227.057 134.696 232.591 134.696ZM332.377 66.4957V140.696H325.577V130.296C323.444 133.829 320.611 136.529 317.077 138.396C313.611 140.262 309.677 141.196 305.277 141.196C300.344 141.196 295.877 140.062 291.877 137.796C287.877 135.529 284.744 132.362 282.477 128.296C280.211 124.229 279.077 119.596 279.077 114.396C279.077 109.196 280.211 104.562 282.477 100.496C284.744 96.429 287.877 93.2957 291.877 91.0957C295.877 88.829 300.344 87.6957 305.277 87.6957C309.544 87.6957 313.377 88.5957 316.777 90.3957C320.244 92.129 323.077 94.6957 325.277 98.0957V66.4957H332.377ZM305.877 134.896C309.544 134.896 312.844 134.062 315.777 132.396C318.777 130.662 321.111 128.229 322.777 125.096C324.511 121.962 325.377 118.396 325.377 114.396C325.377 110.396 324.511 106.829 322.777 103.696C321.111 100.562 318.777 98.1623 315.777 96.4957C312.844 94.7623 309.544 93.8957 305.877 93.8957C302.144 93.8957 298.777 94.7623 295.777 96.4957C292.844 98.1623 290.511 100.562 288.777 103.696C287.111 106.829 286.277 110.396 286.277 114.396C286.277 118.396 287.111 121.962 288.777 125.096C290.511 128.229 292.844 130.662 295.777 132.396C298.777 134.062 302.144 134.896 305.877 134.896ZM397.951 116.596H353.951C354.351 122.062 356.451 126.496 360.251 129.896C364.051 133.229 368.851 134.896 374.651 134.896C377.918 134.896 380.918 134.329 383.651 133.196C386.384 131.996 388.751 130.262 390.751 127.996L394.751 132.596C392.418 135.396 389.484 137.529 385.951 138.996C382.484 140.462 378.651 141.196 374.451 141.196C369.051 141.196 364.251 140.062 360.051 137.796C355.918 135.462 352.684 132.262 350.351 128.196C348.018 124.129 346.851 119.529 346.851 114.396C346.851 109.262 347.951 104.662 350.151 100.596C352.418 96.529 355.484 93.3623 359.351 91.0957C363.284 88.829 367.684 87.6957 372.551 87.6957C377.418 87.6957 381.784 88.829 385.651 91.0957C389.518 93.3623 392.551 96.529 394.751 100.596C396.951 104.596 398.051 109.196 398.051 114.396L397.951 116.596ZM372.551 93.7957C367.484 93.7957 363.218 95.429 359.751 98.6957C356.351 101.896 354.418 106.096 353.951 111.296H391.251C390.784 106.096 388.818 101.896 385.351 98.6957C381.951 95.429 377.684 93.7957 372.551 93.7957ZM440.202 137.496C438.869 138.696 437.202 139.629 435.202 140.296C433.269 140.896 431.236 141.196 429.102 141.196C424.169 141.196 420.369 139.862 417.702 137.196C415.036 134.529 413.702 130.762 413.702 125.896V94.0957H404.302V88.0957H413.702V76.5957H420.802V88.0957H436.802V94.0957H420.802V125.496C420.802 128.629 421.569 131.029 423.102 132.696C424.702 134.296 426.969 135.096 429.902 135.096C431.369 135.096 432.769 134.862 434.102 134.396C435.502 133.929 436.702 133.262 437.702 132.396L440.202 137.496Z" fill="white"/>
</svg>
